<svg xmlns="http://www.w3.org/2000/svg" width="32.607" height="26" viewBox="0 0 32.607 26"><defs><style>.a{fill:#311b58;}.b{fill:#ff548d;}.c{fill:#fff;font-size:12px;font-family:Roboto-Regular, Roboto;}</style></defs><g transform="translate(-1701 -26)"><g transform="translate(1659.987 26)"><path class="a" d="M184.9,465.044a3.649,3.649,0,0,0,6.68,0Z" transform="translate(-124.927 -441.223)"/><path class="a" d="M199.079,2.308a8.208,8.208,0,0,1,2.8.491V2.691A2.694,2.694,0,0,0,199.191,0h-.223a2.694,2.694,0,0,0-2.691,2.691V2.8A8.225,8.225,0,0,1,199.079,2.308Z" transform="translate(-135.763)"/><path class="a" d="M72.837,97.513H53.8a.781.781,0,0,1-.765-.614.77.77,0,0,1,.407-.868,4.146,4.146,0,0,0,1.23-1.723,20.462,20.462,0,0,0,1.282-7.879,7.369,7.369,0,1,1,14.733-.03c0,.01,0,.02,0,.03a20.462,20.462,0,0,0,1.282,7.879,4.145,4.145,0,0,0,1.23,1.723.77.77,0,0,1,.407.868A.781.781,0,0,1,72.837,97.513Zm.366-1.476h0Z" transform="translate(0 -75.11)"/></g><g transform="translate(-85 -23)"><circle class="b" cx="10" cy="10" r="10" transform="translate(1786 52)"/><text class="c" transform="translate(1793 66)"><tspan x="0" y="0">2</tspan></text></g></g></svg>