<svg xmlns="http://www.w3.org/2000/svg" width="30.924" height="20" viewBox="0 0 30.924 20"><defs><style>.a{fill:#ff548d;}.b{fill:#fff;}.c{fill:#1c1c1c;}</style></defs><g transform="translate(7.109)"><path class="a" d="M80.88,15.532a.6.6,0,0,0-.4-.15H78.706V14.15a.55.55,0,0,0-.573-.522H76.752V12.394a.55.55,0,0,0-.573-.522H72.27a.55.55,0,0,0-.573.522v1.233H70.316a.56.56,0,0,0-.564.438H68.535a.56.56,0,0,0-.564-.438H66.589V12.394a.55.55,0,0,0-.573-.522H62.108a.55.55,0,0,0-.573.522v1.233H60.154a.55.55,0,0,0-.573.522v1.233H57.809a.55.55,0,0,0-.573.522v6.669a.55.55,0,0,0,.573.522h1.772v1.935a.55.55,0,0,0,.573.522h2.163v1.935a.55.55,0,0,0,.573.522h1.772v1.935a.55.55,0,0,0,.573.522h1.772v.882a.55.55,0,0,0,.573.522h3.127a.55.55,0,0,0,.573-.522v-.882h1.772a.55.55,0,0,0,.573-.522V28.011H75.4a.55.55,0,0,0,.573-.522V25.554h2.163a.55.55,0,0,0,.573-.522V23.1h1.772a.55.55,0,0,0,.573-.522V15.9A.5.5,0,0,0,80.88,15.532Z" transform="translate(-57.236 -11.872)"/></g><g transform="translate(0 0.05)"><path class="b" d="M32.071,17.147c-.289,0-.577,0-.867,0h-.122l-.005-.121c-.011-.288-.016-.578-.019-.868-2.936,0-5.87.022-8.8.036h-.126l0-.126c0-.244-.007-.489-.015-.734l0-.133h.133c.287,0,.573,0,.858-.007,0-1,0-1.992-.018-2.988-.992.006-1.983.008-2.975.015,0,.289-.016.581.006.873l.012.16-.158-.023a5.8,5.8,0,0,0-.863-.008c-.013.276-.014.553-.013.831v.118l-.118.01c-.613.049-1.229.029-1.845.043-.01.286-.013.574-.015.862v.125l-.125,0c-.615.008-1.23.009-1.845.022,0,.289-.016.58,0,.871l.009.147-.146-.01c-.615-.045-1.235,0-1.851,0q-.006.422-.007.844v.126l-.126,0c-.95.017-1.9.016-2.851.033-.016,1.64-.01,3.281,0,4.921.011,1.679.005,3.358.054,5.038.947-.032,1.895.049,2.841,0L13.2,27.2l0,.136c-.006.282,0,.564.011.844.942.006,1.886,0,2.828,0h.117l.012.115a8.361,8.361,0,0,1,.031.865c1.055,0,2.11-.023,3.166,0h.006c1.268-.041,2.537-.023,3.8-.045,0-.284,0-.568,0-.851v-.123l.123,0c.28-.007.561-.012.842-.009.007-.292,0-.582.012-.871l.006-.112.112-.009c.291-.022.585-.013.879-.019,0-.619-.009-1.237,0-1.855v-.125l.125,0c.279-.006.559-.011.839-.009.045-.949.008-1.9.015-2.851v-.122l.12-.005c.288-.014.576-.021.866-.022,0-.617-.008-1.235,0-1.851l0-.123.123,0c1.278-.019,2.556-.018,3.834-.029q0-.247,0-.494c0-.123,0-.245,0-.368l0-.131H31.2a7.983,7.983,0,0,0,.878-.028c0-.652-.01-1.305-.009-1.958Z" transform="translate(-10.161 -12.202)"/><path class="c" d="M149.679,44.927c0,.653,0,1.306.009,1.959a8.573,8.573,0,0,1-.985.029c-.01-.664,0-1.327-.016-1.991C149.018,44.925,149.348,44.924,149.679,44.927Z" transform="translate(-127.769 -39.983)"/><path class="c" d="M87.039,32.961c0,.33,0,.661.02.99q-5.476.028-10.953.057-.014-.5-.006-1c.327-.008.654-.01.982-.007.011-.331.008-.661,0-.992.334-.013.668-.017,1-.006.014.33.012.66.018.991,2.977-.013,5.954-.038,8.931-.037Z" transform="translate(-66.141 -29.011)"/><path class="c" d="M48.129,58.133c.006.329.006.659,0,.988-1.32.011-2.64.009-3.96.029-.014.659,0,1.317,0,1.976-.329,0-.659,0-.988.024-.011.991.034,1.984-.014,2.975q-.482,0-.965.01c-.009.66,0,1.321,0,1.981-.331.006-.663-.013-.992.024-.027.328-.008.657-.016.986-.322,0-.645,0-.967.011,0,.325-.005.65,0,.977-1.269.022-2.539,0-3.807.045-1.057-.027-2.113,0-3.169,0a7.466,7.466,0,0,0-.041-.98c-.982,0-1.964.008-2.946,0-.012-.326-.024-.653-.01-.978,1-.042,2-.03,3-.025q0,.492,0,.985l6.964-.031c0-.328,0-.656,0-.984.323-.02.648,0,.97-.029a5.3,5.3,0,0,0,.021-.987c-1,0-1.991.021-2.988.006q0-.487-.006-.975c1.328-.029,2.656-.013,3.985-.027,0-.666,0-1.331-.01-2-1,0-1.99.02-2.985.014q-.013-.495-.006-.989c1.327-.013,2.655-.021,3.982-.011,0-.666,0-1.332-.014-2-1.326,0-2.651.018-3.977.02q-.017-.5-.006-1,4.471-.022,8.943-.037Z" transform="translate(-27.218 -51.197)"/><path class="c" d="M78.927,12.2c.022,1,.021,1.992.018,2.988-.33.009-.659.016-.989.008-.019-.66-.01-1.321-.019-1.981-.657-.021-1.317.042-1.973,0a7.451,7.451,0,0,1-.011-1C76.944,12.212,77.936,12.211,78.927,12.2Z" transform="translate(-66.008 -12.205)"/><path class="c" d="M48.029,18.868a5.356,5.356,0,0,1,.027.967c-.332.009-.664.011-1,.01,0,.333,0,.664,0,1-.662.011-1.324.007-1.986.014q.005.492,0,.985c-.664,0-1.332.05-1.993-.015a9.093,9.093,0,0,1-.006-.971c.656-.013,1.312-.016,1.968-.024,0-.329,0-.657.016-.986.654-.014,1.308.015,1.96-.048,0-.318,0-.636.016-.954a4.3,4.3,0,0,1,.994.026Z" transform="translate(-38.096 -17.826)"/><path class="c" d="M15.147,38.816c.027.325.013.652.013.978-.66.012-1.321.007-1.981.012,0,.331,0,.664-.005,1-.66.01-1.322,0-1.982.014q.01,3.972.036,7.945c.661.007,1.323-.009,1.984-.005.006.339.012.678-.005,1.017-.991.059-1.983-.034-2.976,0-.049-1.679-.042-3.358-.053-5.038-.01-1.64-.016-3.281,0-4.92.992-.018,1.984-.016,2.975-.036,0-.324,0-.647.007-.971.663,0,1.329-.055,1.988.01Z" transform="translate(-10.166 -34.771)"/></g></svg>