<svg xmlns="http://www.w3.org/2000/svg" width="6.567" height="13" viewBox="0 0 6.567 13"><defs><style>.a{fill:#385c8e;}</style></defs><path class="a" d="M126.892,6.924h1.425V12.79a.21.21,0,0,0,.21.21h2.416a.21.21,0,0,0,.21-.21V6.951h1.638A.21.21,0,0,0,133,6.766l.249-2.16a.21.21,0,0,0-.208-.234h-1.887V3.018c0-.408.22-.615.653-.615h1.234a.21.21,0,0,0,.21-.21V.211a.21.21,0,0,0-.21-.21h-1.7l-.078,0a3.258,3.258,0,0,0-2.13.8,2.234,2.234,0,0,0-.743,1.986V4.372h-1.5a.21.21,0,0,0-.21.21V6.714A.21.21,0,0,0,126.892,6.924Z" transform="translate(-126.682)"/></svg>