<svg xmlns="http://www.w3.org/2000/svg" width="25.23" height="25.23" viewBox="0 0 25.23 25.23"><defs><style>.a{fill:#311b58;}</style></defs><g transform="translate(3.291 3.291)"><rect class="a" width="1.645" height="1.645"/></g><g transform="translate(4.936)"><rect class="a" width="8.776" height="1.645" transform="translate(3.291)"/><rect class="a" width="3.291" height="1.645" transform="translate(0 1.645)"/><rect class="a" width="3.291" height="1.645" transform="translate(12.066 1.645)"/><rect class="a" width="1.645" height="1.645" transform="translate(15.357 3.291)"/></g><g transform="translate(21.939 4.936)"><rect class="a" width="1.645" height="3.291"/></g><g transform="translate(23.585 8.227)"><rect class="a" width="1.645" height="8.776"/></g><g transform="translate(21.939 17.003)"><rect class="a" width="1.645" height="3.291"/></g><g transform="translate(0 4.936)"><rect class="a" width="1.645" height="3.291" transform="translate(1.645)"/><rect class="a" width="1.645" height="8.776" transform="translate(0 3.291)"/><rect class="a" width="1.645" height="1.645" transform="translate(3.291 15.357)"/><rect class="a" width="1.645" height="3.291" transform="translate(1.645 12.066)"/></g><g transform="translate(4.936 21.939)"><rect class="a" width="8.776" height="1.645" transform="translate(3.291 1.645)"/><rect class="a" width="3.291" height="1.645"/><rect class="a" width="3.291" height="1.645" transform="translate(12.066)"/></g><g transform="translate(20.294 20.294)"><rect class="a" width="1.645" height="1.645"/></g><g transform="translate(11.518 18.648)"><rect class="a" width="1.645" height="1.645"/></g><g transform="translate(11.518 13.712)"><rect class="a" width="1.645" height="3.291"/></g><g transform="translate(13.163 12.067)"><rect class="a" width="2.194" height="1.645"/></g><g transform="translate(15.357 6.582)"><rect class="a" width="1.645" height="5.485"/></g><g transform="translate(9.324 4.936)"><rect class="a" width="6.033" height="1.645"/></g><g transform="translate(7.679 6.582)"><rect class="a" width="1.645" height="3.291"/></g></svg>