<svg xmlns="http://www.w3.org/2000/svg" width="57.755" height="60" viewBox="0 0 57.755 60"><defs><style>.a{fill:#ff548d;}.b{fill:#fff;}</style></defs><g transform="translate(-10.833 -9.963)"><g transform="translate(10.833 22.116)"><path class="a" d="M68.173,60.526a1.463,1.463,0,0,0-.974-.359H62.9V57.218a1.326,1.326,0,0,0-1.389-1.25H58.161V53.019a1.326,1.326,0,0,0-1.389-1.25H47.294a1.327,1.327,0,0,0-1.389,1.25v2.949H42.554a1.355,1.355,0,0,0-1.369,1.048H38.236a1.354,1.354,0,0,0-1.369-1.048h-3.35V53.019a1.326,1.326,0,0,0-1.389-1.25H22.649a1.327,1.327,0,0,0-1.389,1.25v2.949H17.909a1.327,1.327,0,0,0-1.389,1.25v2.949h-4.3a1.327,1.327,0,0,0-1.389,1.25V77.372a1.326,1.326,0,0,0,1.389,1.25h4.3V83.25a1.326,1.326,0,0,0,1.389,1.25h5.246v4.628a1.326,1.326,0,0,0,1.389,1.25h4.3v4.628a1.326,1.326,0,0,0,1.389,1.25h4.3v2.109a1.326,1.326,0,0,0,1.389,1.25H43.5a1.327,1.327,0,0,0,1.389-1.25V96.256h4.3a1.327,1.327,0,0,0,1.389-1.25V90.378h4.3a1.327,1.327,0,0,0,1.389-1.25V84.5h5.246A1.327,1.327,0,0,0,62.9,83.25V78.622h4.3a1.327,1.327,0,0,0,1.389-1.25V61.416A1.184,1.184,0,0,0,68.173,60.526Z" transform="translate(-10.833 -51.769)"/></g><g transform="translate(33.303 9.963)"><path class="a" d="M99.261,22.491,94.236,17.47a1.453,1.453,0,0,1,0-2.056l5.021-5.025a1.453,1.453,0,0,1,2.056,0l5.025,5.021a1.453,1.453,0,0,1,0,2.056l-5.021,5.025A1.453,1.453,0,0,1,99.261,22.491Z" transform="translate(-93.81 -9.963)"/></g><path class="b" d="M93.515,101.344,80.629,88.471a2.309,2.309,0,0,0-1.643-.681h0a2.31,2.31,0,0,0-1.644.682L64.466,101.358a2.328,2.328,0,0,0,0,3.289L77.354,117.52A2.309,2.309,0,0,0,79,118.2h0a2.31,2.31,0,0,0,1.644-.682l12.874-12.885A2.328,2.328,0,0,0,93.515,101.344ZM92.282,103.4,79.409,116.286a.578.578,0,0,1-.411.171h0a.577.577,0,0,1-.411-.17L65.7,103.413a.582.582,0,0,1,0-.822L78.574,89.7a.583.583,0,0,1,.822,0l12.885,12.874a.581.581,0,0,1,0,.822Z" transform="translate(-39.215 -57.548)"/><g transform="translate(33.234 39.26)"><path class="b" d="M99.006,130.6,93.98,125.58a1.453,1.453,0,0,1,0-2.056L99,118.5a1.453,1.453,0,0,1,2.056,0l5.025,5.021a1.453,1.453,0,0,1,0,2.056l-5.021,5.025A1.453,1.453,0,0,1,99.006,130.6Z" transform="translate(-93.554 -118.073)"/></g></g></svg>